<svg xmlns="http://www.w3.org/2000/svg" viewBox="0 0 3968.5 268.3"><defs><style>.cls-1{fill:#fff;}</style></defs><title>Asset 1</title><g id="Layer_2" data-name="Layer 2"><g id="Capa_1" data-name="Capa 1"><path class="cls-1" d="M3968.5,154.87c-3.68,1.66-5.89,2.63-8.09,3.65-26.06,12.09-52.67,12.88-79.37,2.53-37.2-14.43-53.69-52.28-38.25-86.68,11.82-26.35,41.62-39,66.58-28.25,15.56,6.7,22.67,22.49,16.2,37.49-1.61,3.74-5.58,6.57-9.64,11.15-2.84-17.36-9-24.47-20.19-25.53-11.37-1.08-22.24,5.36-25.64,16-3.33,10.42-1.49,20.35,5.18,29.3,13.71,18.4,46.33,21.6,67.1,6.62,28-20.21,32.92-61.75,12-90.34C3928.19-5,3863-7,3833.77,13.75a141.4,141.4,0,0,0-45.6,53.32c-11.19,22.66-22.4,45.3-39.51,64.65-29.43,33.3-74.89,45-115.11,29.62-35.4-13.53-52.61-47.86-41-81.87,8.07-23.7,30.25-38.72,54.39-36.84s38.18,20,30.75,40.35c-1.43,3.92-5.34,7-9.22,11.87-3.88-17.83-10.11-24.77-21.19-25.63-17.78-1.37-30.72,14.84-26.11,32.71,5.81,22.57,34.14,35,59.54,26.08,32.47-11.37,48-51.56,33.08-84.49-20.44-45-82-51.73-117.59-35.29-27,12.48-43.68,34.75-56.78,59.82-8,15.31-15.74,30.84-25.11,45.39-23.43,36.35-56.42,57.67-102.81,54C3368.72,164,3334,133.7,3342.27,86.8c3.8-21.56,22.84-40.59,44.35-43.85,20.37-3.09,38.85,6.12,43.77,21.79,3.9,12.43-1.12,24.76-11.24,27.31a20.12,20.12,0,0,1-.52-2.24c-1.62-12.58-9.31-20.26-20.76-20.71a24.38,24.38,0,0,0-25,19.87c-2.76,14.47,5.17,29.67,19,36.34a54.44,54.44,0,0,0,59.89-8.74c22.85-21,25.08-59.38,6.7-85.18-25.77-36.16-90.33-38.1-119-18.88-21.63,14.49-36.88,33.65-48.48,56-8.3,16-16.6,32.2-26.55,47.31-23.56,35.82-57,55.69-102.43,51.45-42.59-4-75-33.35-68.11-79.45,3.4-22.63,23.16-41.95,46-45.09,17.91-2.46,35.17,5.42,41.14,18.78,5.54,12.42,1.53,26.24-9.77,31.1-.42-1.69-.74-2.65-.89-3.64-2-12.63-9.63-19.73-21.46-19.84s-22.26,8.42-24.3,19.81c-2.6,14.57,5,30.14,19,36.34,18,8,35.75,7.23,52.82-3.24,30.14-18.47,31.87-63.14,16.33-87.19-24.22-37.49-82-41.23-112.51-27-25.61,11.92-42,32.73-55.13,56.2-10.25,18.35-19.34,37.41-31.1,54.83-25.89,38.35-67.58,55.53-109.83,47-46.89-9.42-72-51.86-54.21-91.53,11.1-24.74,38.12-37.53,62.84-29.76,17.34,5.45,26.25,21.06,20.65,37.59-1.41,4.15-5.53,7.47-8.41,11.17-2.3-2.51-2.45-3.78-2.68-5-2.13-11.58-9.13-18.39-19.72-19.19-11.37-.86-21.94,5.94-25.4,16.36-4.7,14.13,2.65,31.64,16.33,38.88,18.88,10,43.27,7.55,59.58-6,24.39-20.24,28.38-59.9,9.73-86C2939.67,0,2892.27-5.93,2859.19,5.19c-30.35,10.2-48.27,33.85-62.89,60.05C2785,85.44,2775,106.57,2761.06,125c-25.69,34.12-61.45,48.76-105.59,40.76-41.15-7.46-65.25-41.28-57.6-79.81,6.07-30.64,36.94-49.89,66.35-41.38,18.42,5.34,28,23.07,20.62,39.23-1.65,3.63-5.62,6.3-9.9,10.89-2.15-18.5-11.35-26.74-25.4-25.56C2636.78,70.23,2626,83,2628,96.44a43.36,43.36,0,0,0,7.41,18.88c12.47,17.05,43.63,20,63.82,7.54,29.37-18.14,32.26-57.11,21.33-80-11.25-23.57-31.34-36.75-58.07-40.78-30.37-4.57-58.18-.47-81.45,20.83-15.18,13.9-26.58,30.06-35.73,48-7.72,15.14-15.56,30.36-25,44.55-23.87,35.86-57.33,56.36-103.18,51.74-45.53-4.59-74.9-36.21-67.6-79.72,5.18-30.92,35.39-50.87,65.08-43.38,18.89,4.77,29.16,22.6,22.07,39.27-1.59,3.72-5.48,6.56-8.3,9.8-2.19-2.54-2.42-3.55-2.52-4.57-.9-9-5.66-15.38-14.55-18.44-8.58-3-16.32-.7-23.08,4.83-10.23,8.35-11.63,25.27-3.19,37.72,12.76,18.83,44.88,23.74,65.8,10.06,23-15,33.36-43.41,25-70.89-7.15-23.42-23.35-39.86-47.75-46.56C2387.43-5.79,2352.19-.79,2324,32.17c-11.73,13.69-20.11,30-29.86,45.22-11.78,18.37-21.68,38.1-35.43,55a92.67,92.67,0,0,1-18.3,17.07c0,.07,0,.13,0,.19-22.17,15.78-49,21.62-80.11,16-41.15-7.45-65.24-41.28-57.6-79.81,6.08-30.64,36.95-49.89,66.35-41.38,18.43,5.34,28,23.07,20.62,39.23-1.65,3.63-5.61,6.3-9.9,10.9-2.15-18.51-11.35-26.75-25.4-25.57-12.76,1.07-23.5,13.81-21.58,27.28a43.4,43.4,0,0,0,7.41,18.89c12.48,17,43.63,20,63.82,7.53,29.37-18.14,32.26-57.11,21.33-80C2214.07,19.13,2194,6,2167.26,1.92c-30.38-4.57-58.18-.47-81.46,20.83-15.18,13.9-26.58,30.06-35.73,48-7.72,15.15-15.55,30.37-25,44.55a131.78,131.78,0,0,1-28.77,31.56,116.73,116.73,0,0,1-21.22,12.22c-1,.44-2,.8-2.95,1.21-1.48.56-3,1.11-4.48,1.55a9.66,9.66,0,0,0-2.47,1.12c-22.42,7.55-45.19,6.91-68-1.94-37.2-14.43-53.69-52.28-38.25-86.68,11.82-26.35,41.62-39,66.58-28.25,15.56,6.7,22.67,22.49,16.21,37.49-1.62,3.74-5.59,6.57-9.65,11.15-2.84-17.36-9-24.47-20.19-25.53-11.37-1.08-22.24,5.36-25.64,16-3.33,10.42-1.49,20.35,5.18,29.3,13.71,18.4,46.33,21.6,67.1,6.62,28-20.21,32.92-61.75,12-90.34C1944.32-5,1879.09-7,1849.9,13.75a141.4,141.4,0,0,0-45.6,53.32c-11.19,22.66-22.4,45.3-39.51,64.65-29.43,33.3-74.89,45-115.1,29.62-35.41-13.53-52.62-47.86-41-81.87,8.06-23.7,30.24-38.72,54.38-36.84s38.18,20,30.75,40.35c-1.43,3.92-5.34,7-9.21,11.87-3.89-17.83-10.12-24.77-21.2-25.63-17.78-1.37-30.72,14.84-26.11,32.71,5.81,22.57,34.14,35,59.54,26.08,32.47-11.37,48-51.56,33.08-84.49-20.43-45-82-51.73-117.59-35.29-27,12.48-43.68,34.75-56.78,59.82-8,15.31-15.74,30.84-25.11,45.39-23.43,36.35-56.42,57.67-102.81,54-42.74-3.39-77.44-33.73-69.18-80.63,3.79-21.56,22.83-40.59,44.34-43.85,20.37-3.09,38.86,6.12,43.77,21.79,3.9,12.43-1.12,24.76-11.24,27.31a20.12,20.12,0,0,1-.52-2.24c-1.62-12.58-9.31-20.26-20.76-20.71A24.38,24.38,0,0,0,1389,89c-2.76,14.47,5.17,29.67,19,36.34a54.44,54.44,0,0,0,59.89-8.74c22.85-21,25.08-59.38,6.7-85.18-25.77-36.16-90.33-38.1-119-18.88-21.63,14.49-36.88,33.65-48.48,56-8.3,16-16.6,32.2-26.55,47.31-23.56,35.82-57,55.69-102.43,51.45-42.58-4-75-33.35-68.11-79.45,3.4-22.63,23.17-41.95,46-45.09,17.91-2.46,35.17,5.42,41.14,18.78,5.54,12.42,1.53,26.24-9.77,31.1-.42-1.69-.74-2.65-.89-3.64-2-12.63-9.63-19.73-21.46-19.84s-22.26,8.42-24.3,19.81c-2.6,14.57,5,30.14,19,36.34,18,8,35.75,7.23,52.82-3.24,30.14-18.47,31.87-63.14,16.33-87.19-24.22-37.49-82-41.23-112.51-27-25.61,11.92-42,32.73-55.13,56.2-10.25,18.35-19.34,37.41-31.1,54.83-25.89,38.35-67.57,55.53-109.83,47-46.89-9.42-72-51.86-54.21-91.53,11.11-24.74,38.12-37.53,62.84-29.76,17.34,5.45,26.25,21.06,20.65,37.59-1.41,4.15-5.53,7.47-8.4,11.17-2.31-2.51-2.46-3.78-2.69-5-2.13-11.58-9.13-18.39-19.72-19.19-11.37-.86-21.94,5.94-25.4,16.36-4.7,14.13,2.65,31.64,16.33,38.88,18.89,10,43.27,7.55,59.58-6,24.39-20.24,28.38-59.9,9.73-86C955.8,0,908.4-5.93,875.32,5.19,845,15.39,827.05,39,812.43,65.24c-11.27,20.2-21.35,41.33-35.24,59.79-25.69,34.12-61.45,48.76-105.59,40.76C630.45,158.33,606.35,124.51,614,86c6.07-30.64,36.94-49.89,66.35-41.38,18.42,5.34,28,23.07,20.62,39.23-1.65,3.63-5.62,6.3-9.9,10.89-2.15-18.5-11.35-26.74-25.4-25.56-12.76,1.07-23.5,13.81-21.58,27.28a43.36,43.36,0,0,0,7.41,18.88c12.48,17.05,43.63,20,63.82,7.54,29.37-18.14,32.26-57.11,21.33-80C725.4,19.3,705.31,6.12,678.58,2.09c-30.37-4.57-58.18-.47-81.45,20.83C582,36.82,570.55,53,561.4,71c-7.72,15.14-15.56,30.36-25,44.55-23.87,35.86-57.32,56.36-103.18,51.74-45.53-4.59-74.9-36.21-67.6-79.72C370.81,56.6,401,36.65,430.7,44.14c18.89,4.77,29.16,22.6,22.07,39.27-1.59,3.72-5.48,6.56-8.3,9.8-2.19-2.54-2.41-3.55-2.52-4.57-.9-9-5.66-15.38-14.55-18.44-8.58-3-16.31-.7-23.08,4.83-10.23,8.35-11.63,25.27-3.19,37.72,12.76,18.83,44.88,23.74,65.8,10.06,23-15,33.36-43.41,25-70.89-7.15-23.42-23.35-39.86-47.75-46.56C403.56-5.79,368.32-.79,340.09,32.17c-11.73,13.69-20.11,30-29.86,45.22-11.78,18.37-21.68,38.1-35.43,55a92.67,92.67,0,0,1-18.3,17.07c0,.07,0,.13,0,.19-22.17,15.78-49,21.62-80.11,16-41.15-7.45-65.24-41.28-57.6-79.81,6.08-30.64,37-49.89,66.35-41.38,18.43,5.34,28,23.07,20.62,39.23-1.65,3.63-5.61,6.3-9.9,10.9-2.15-18.51-11.35-26.75-25.4-25.57C157.71,70.06,147,82.8,148.89,96.27a43.52,43.52,0,0,0,7.41,18.89c12.48,17,43.63,20,63.82,7.53,29.37-18.14,32.26-57.11,21.34-80C230.2,19.13,210.11,6,183.39,1.92,153-2.65,125.21,1.45,101.93,22.75c-15.17,13.9-26.58,30.06-35.73,48-7.72,15.15-15.55,30.37-25,44.55a131.78,131.78,0,0,1-28.77,31.56A116.2,116.2,0,0,1,0,154.83V268.3H3968.5Z"/></g></g></svg>