<?xml version="1.0" encoding="iso-8859-1"?>
<!-- Generator: Adobe Illustrator 19.0.0, SVG Export Plug-In . SVG Version: 6.00 Build 0)  -->
<svg version="1.1" id="Layer_1" xmlns="http://www.w3.org/2000/svg" xmlns:xlink="http://www.w3.org/1999/xlink" x="0px" y="0px"
	 viewBox="0 0 512 512" style="enable-background:new 0 0 512 512;" xml:space="preserve">
<g>
	<g>
		<path d="M476.114,248.434c-4.451,0-8.057,3.606-8.057,8.057v9.448h-49.69H355.62h-49.689v-85.377h33.465h95.194h33.466v50.153
			c0,4.451,3.606,8.057,8.057,8.057c4.451,0,8.057-3.606,8.057-8.057v-58.21c0.001-4.448-3.606-8.055-8.056-8.055h-18.991
			c17.215-17.873,27.047-41.765,27.047-67.274C484.171,43.593,440.577,0,386.994,0s-97.176,43.593-97.176,97.176
			c0,25.51,9.833,49.401,27.047,67.274h-18.991c-4.451,0-8.057,3.606-8.057,8.057v101.491c0,4.451,3.606,8.057,8.057,8.057h38.299
			c-14.437,1.882-34.144,6.35-49.941,16.898v-1.427c0-4.451-3.606-8.057-8.057-8.057h-34.114v-8.795
			c0-4.451-3.606-8.057-8.057-8.057H35.886c-4.451,0-8.057,3.606-8.057,8.057v189.419c0,4.451,3.606,8.057,8.057,8.057h200.118
			c4.451,0,8.057-3.606,8.057-8.057v-8.794h34.114c4.451,0,8.057-3.606,8.057-8.057v-0.299
			c11.173,5.657,30.117,11.833,61.332,14.152v5.477c0,21.741,17.689,39.428,39.43,39.428s39.43-17.687,39.43-39.428v-4.499h7.317
			c14.567,0,27.343-11.795,27.343-25.243c0-3.66-0.776-7.151-2.184-10.305c9.773-3.484,16.787-12.83,16.787-23.785
			c0-5.584-1.804-10.769-4.905-14.969c5.375-4.632,8.784-11.486,8.784-19.123c0-8.971-4.706-16.862-11.779-21.339
			c2.196-3.749,3.438-8.112,3.438-12.747c0-12.864-9.675-23.502-22.127-25.041c1.18-2.924,1.835-6.114,1.835-9.456
			c0-11.135-7.214-20.609-17.209-24.015h42.392c4.451,0,8.057-3.606,8.057-8.057V256.49
			C484.171,252.04,480.565,248.434,476.114,248.434z M305.93,97.176c0-44.697,36.365-81.063,81.063-81.063
			c44.698,0,81.064,36.365,81.064,81.063c0,27.166-13.361,52.145-35.862,67.274H341.79
			C319.291,149.321,305.93,124.343,305.93,97.176z M227.947,297.524v155.717v8.794H43.943V288.73h184.004V297.524z M270.118,316.923
			V437.41v7.775h-26.057V305.581h26.057V316.923z M363.677,282.054h46.633v6.702v26.569h-46.448v-26.569
			c0-0.584-0.067-1.154-0.185-1.703V282.054z M410.31,472.572c0,12.856-10.46,23.314-23.317,23.314s-23.317-10.459-23.317-23.314
			v-4.499h9.608h37.025V472.572z M445.987,331.44c5.03,0,9.122,4.094,9.122,9.125c0,4.306-2.992,7.946-7.178,8.851h-57.862
			c-4.451,0-8.057,3.606-8.057,8.057s3.606,8.057,8.057,8.057h58.647h5.607c5.034,0,9.128,4.093,9.128,9.121
			c0,5.033-4.095,9.127-9.128,9.127h-0.756c-0.179-0.012-0.358-0.027-0.54-0.027h-59.911c-4.451,0-8.057,3.606-8.057,8.057
			s3.606,8.057,8.057,8.057h59.138c4.26,0.857,7.318,4.528,7.318,8.878c0,5.033-4.095,9.127-9.128,9.127h-11.833
			c-0.305,0-0.605,0.021-0.901,0.055c-0.395-0.059-0.796-0.1-1.207-0.1h-43.388c-4.451,0-8.057,3.606-8.057,8.057
			s3.606,8.057,8.057,8.057h43.388c0.293,0,0.582-0.018,0.868-0.048c4.406,0.746,7.598,4.496,7.598,8.942
			c0,4.522-5.667,9.129-11.229,9.129h-15.374h-44.66c-0.202-0.017-0.428-0.028-0.672-0.028
			c-59.482-0.233-81.085-13.363-86.803-17.929V319.901c16.031-17.487,46.713-21.732,61.332-22.761v26.243
			c0,4.451,3.606,8.057,8.057,8.057h0.185h62.562h7.193H445.987z M434.817,306.069c0,4.813-3.692,8.781-8.393,9.217v-18.433
			C431.125,297.289,434.817,301.256,434.817,306.069z"/>
	</g>
</g>
<g>
	<g>
		<path d="M200.51,306.002h-21.086c-4.451,0-8.057,3.606-8.057,8.057s3.606,8.057,8.057,8.057h21.086
			c4.451,0,8.057-3.606,8.057-8.057S204.959,306.002,200.51,306.002z"/>
	</g>
</g>
<g>
	<g>
		<path d="M386.994,31.423c-4.451,0-8.057,3.606-8.057,8.057c0,4.451,3.606,8.057,8.057,8.057c27.725,0,50.28,22.555,50.28,50.279
			c0,4.451,3.606,8.057,8.057,8.057s8.057-3.607,8.057-8.057C453.387,61.206,423.603,31.423,386.994,31.423z"/>
	</g>
</g>
<g>
</g>
<g>
</g>
<g>
</g>
<g>
</g>
<g>
</g>
<g>
</g>
<g>
</g>
<g>
</g>
<g>
</g>
<g>
</g>
<g>
</g>
<g>
</g>
<g>
</g>
<g>
</g>
<g>
</g>
</svg>
