<svg xmlns="http://www.w3.org/2000/svg" viewBox="0 0 3968.5 224.94"><defs><style>.cls-1{fill:#fff;}</style></defs><title>Asset 3</title><g id="Layer_2" data-name="Layer 2"><g id="Capa_1" data-name="Capa 1"><path class="cls-1" d="M3968.5,36.69c-23.95,41.43-72.77,41.43-96.73,0-28.29-48.92-83.84-48.92-112.13,0-24,41.43-72.78,41.43-96.74,0-28.29-48.92-83.84-48.92-112.13,0-24,41.43-72.78,41.42-96.73,0-28.3-48.92-83.84-48.92-112.14,0-24,41.43-72.77,41.42-96.73,0-28.3-48.92-83.84-48.92-112.14,0-24,41.43-72.78,41.43-96.73,0-28.3-48.92-83.84-48.92-112.14,0-23.95,41.43-72.77,41.42-96.73,0-28.29-48.92-83.84-48.92-112.14,0-23.95,41.42-72.77,41.43-96.73,0-28.29-48.92-83.84-48.92-112.13,0-24,41.42-72.78,41.42-96.74,0-28.29-48.92-83.83-48.92-112.13,0-24,41.43-72.78,41.42-96.73,0-28.3-48.92-83.85-48.92-112.14,0-24,41.43-72.78,41.43-96.73,0-28.3-48.92-83.84-48.92-112.14,0-24,41.43-72.77,41.43-96.73,0-28.29-48.92-83.84-48.92-112.14,0-24,41.43-72.77,41.43-96.73,0C1560.07,12.23,1539.11,0,1518.15,0s-41.92,12.23-56.07,36.69c-23.95,41.43-72.77,41.43-96.73,0-28.29-48.92-83.84-48.92-112.13,0-24,41.42-72.78,41.43-96.74,0-28.29-48.92-83.83-48.92-112.13,0-24,41.42-72.78,41.42-96.74,0C933.47,12.23,912.5,0,891.55,0s-41.92,12.23-56.07,36.69c-24,41.43-72.77,41.43-96.73,0-28.3-48.92-83.84-48.92-112.14,0-24,41.43-72.78,41.43-96.73,0-28.3-48.92-83.84-48.92-112.13,0-24,41.43-72.78,41.43-96.74,0-28.3-48.92-83.84-48.92-112.14,0-24,41.43-72.77,41.43-96.73,0C83.85-12.23,28.3-12.23,0,36.69H0V60.52H0c28.3-48.93,83.85-48.93,112.14,0,24,41.42,72.78,41.42,96.73,0,28.3-48.93,83.84-48.93,112.14,0,24,41.42,72.78,41.42,96.74,0,28.29-48.93,83.83-48.93,112.13,0,24,41.42,72.77,41.42,96.73,0,28.3-48.93,83.84-48.93,112.14,0,24,41.42,72.77,41.42,96.73,0,14.15-24.47,35.11-36.7,56.07-36.7s41.92,12.24,56.06,36.7c24,41.42,72.78,41.42,96.74,0,28.3-48.93,83.84-48.93,112.13,0,24,41.42,72.78,41.42,96.74,0,28.29-48.92,83.84-48.92,112.13,0,24,41.42,72.78,41.42,96.73,0,14.15-24.47,35.11-36.7,56.07-36.7s41.92,12.24,56.07,36.7c24,41.42,72.78,41.42,96.73,0,28.3-48.93,83.85-48.93,112.14,0,24,41.42,72.77,41.42,96.73,0,28.3-48.92,83.84-48.92,112.14,0,24,41.42,72.77,41.42,96.73,0,28.29-48.92,83.84-48.92,112.14,0,24,41.42,72.77,41.42,96.73,0,28.3-48.92,83.84-48.92,112.13,0,24,41.42,72.78,41.41,96.74,0,28.29-48.93,83.84-48.93,112.13,0,24,41.42,72.78,41.42,96.73,0,28.3-48.93,83.85-48.93,112.14,0,24,41.42,72.78,41.42,96.73,0,28.3-48.92,83.84-48.92,112.14,0,23.95,41.42,72.78,41.42,96.73,0,28.3-48.93,83.84-48.93,112.14,0,24,41.42,72.77,41.42,96.73,0,28.3-48.93,83.84-48.93,112.14,0,23.95,41.42,72.77,41.42,96.73,0,28.29-48.93,83.84-48.92,112.13,0,24,41.42,72.78,41.42,96.74,0,28.29-48.92,83.84-48.92,112.13,0,24,41.42,72.78,41.42,96.73,0h0V36.69Z"/><path class="cls-1" d="M3864.07,74.81c-24-41.42-72.77-41.42-96.73,0-28.3,48.93-83.84,48.93-112.14,0-24-41.42-72.77-41.42-96.73,0-28.3,48.92-83.84,48.92-112.13,0-24-41.42-72.78-41.42-96.74,0-28.29,48.92-83.84,48.92-112.13,0-24-41.42-72.78-41.42-96.73,0-28.3,48.93-83.85,48.93-112.14,0-24-41.42-72.78-41.42-96.74,0-28.29,48.92-83.83,48.92-112.13,0-24-41.42-72.78-41.42-96.73,0-28.3,48.92-83.84,48.93-112.14,0-24-41.42-72.77-41.42-96.73,0-28.3,48.92-83.85,48.92-112.14,0-24-41.42-72.77-41.42-96.73,0-28.29,48.92-83.84,48.92-112.13,0-24-41.42-72.78-41.42-96.74,0-28.29,48.92-83.84,48.92-112.13,0-24-41.42-72.78-41.42-96.74,0-28.29,48.92-83.84,48.92-112.13,0-24-41.42-72.78-41.42-96.73,0-28.3,48.92-83.84,48.92-112.14,0-24-41.42-72.78-41.42-96.73,0-28.3,48.92-83.84,48.92-112.14,0-24-41.42-72.77-41.42-96.73,0-28.3,48.92-83.84,48.92-112.14,0-24-41.42-72.77-41.42-96.73,0-28.29,48.92-83.84,48.92-112.14,0-23.95-41.42-72.77-41.42-96.73,0-28.29,48.92-83.84,48.92-112.13,0-24-41.42-72.78-41.42-96.74,0-28.29,48.92-83.84,48.92-112.13,0-24-41.42-72.78-41.42-96.73,0-28.3,48.93-83.85,48.93-112.14,0-24-41.42-72.78-41.42-96.73,0-28.3,48.92-83.84,48.92-112.14,0-24-41.42-72.78-41.42-96.73,0A92,92,0,0,1,0,86.1v16.19H0c28.3-48.93,83.85-48.93,112.14,0,24,41.42,72.78,41.42,96.73,0,28.3-48.93,83.84-48.93,112.14,0,24,41.42,72.78,41.42,96.74,0,28.29-48.93,83.83-48.93,112.13,0,24,41.42,72.77,41.42,96.73,0,28.3-48.93,83.84-48.93,112.14,0,24,41.42,72.77,41.42,96.73,0,14.15-24.47,35.11-36.7,56.07-36.7s41.92,12.24,56.06,36.7c24,41.42,72.78,41.42,96.74,0,28.3-48.93,83.84-48.93,112.13,0,24,41.42,72.78,41.42,96.74,0,28.29-48.92,83.84-48.92,112.13,0,24,41.42,72.78,41.42,96.73,0,14.15-24.47,35.11-36.7,56.07-36.7s41.92,12.24,56.07,36.7c24,41.42,72.78,41.42,96.73,0,28.3-48.93,83.85-48.93,112.14,0,24,41.42,72.77,41.42,96.73,0,28.3-48.92,83.84-48.92,112.14,0,24,41.42,72.77,41.42,96.73,0,28.29-48.92,83.84-48.92,112.14,0,24,41.42,72.77,41.42,96.73,0,28.3-48.92,83.84-48.92,112.13,0,24,41.42,72.78,41.41,96.74,0,28.29-48.93,83.84-48.93,112.13,0,24,41.42,72.78,41.42,96.73,0,28.3-48.93,83.85-48.93,112.14,0,24,41.42,72.78,41.42,96.73,0,28.3-48.92,83.84-48.92,112.14,0,23.95,41.42,72.78,41.42,96.73,0,28.3-48.93,83.84-48.93,112.14,0,24,41.42,72.77,41.42,96.73,0,28.3-48.93,83.84-48.93,112.14,0,23.95,41.42,72.77,41.42,96.73,0,28.29-48.93,83.84-48.93,112.13,0,24,41.42,72.78,41.42,96.74,0,28.29-48.92,83.84-48.92,112.13,0,24,41.42,72.78,41.42,96.73,0h0V86.09C3938.74,123.36,3890,119.62,3864.07,74.81Z"/><path class="cls-1" d="M3864.07,116.58c-24-41.42-72.77-41.42-96.73,0-28.3,48.93-83.84,48.93-112.14,0-24-41.42-72.77-41.42-96.73,0-28.3,48.92-83.84,48.92-112.13,0-24-41.42-72.78-41.42-96.74,0-28.29,48.92-83.84,48.92-112.13,0-24-41.42-72.78-41.42-96.73,0-28.3,48.93-83.85,48.93-112.14,0-24-41.42-72.78-41.42-96.74,0-28.29,48.92-83.83,48.92-112.13,0-24-41.42-72.78-41.42-96.73,0-28.3,48.92-83.84,48.93-112.14,0-24-41.42-72.77-41.42-96.73,0-28.3,48.92-83.85,48.92-112.14,0-24-41.42-72.77-41.42-96.73,0-28.29,48.92-83.84,48.92-112.13,0-24-41.42-72.78-41.42-96.74,0-28.29,48.92-83.84,48.92-112.13,0-24-41.42-72.78-41.42-96.74,0-28.29,48.92-83.84,48.92-112.13,0-24-41.42-72.78-41.42-96.73,0-28.3,48.92-83.84,48.92-112.14,0-24-41.42-72.78-41.42-96.73,0-28.3,48.92-83.84,48.92-112.14,0-24-41.42-72.77-41.42-96.73,0-28.3,48.92-83.84,48.92-112.14,0-24-41.42-72.77-41.42-96.73,0-28.29,48.92-83.84,48.92-112.14,0-23.95-41.42-72.77-41.42-96.73,0-28.29,48.92-83.84,48.92-112.13,0-24-41.42-72.78-41.42-96.74,0-28.29,48.92-83.84,48.92-112.13,0-24-41.42-72.78-41.42-96.73,0-28.3,48.93-83.85,48.93-112.14,0-24-41.42-72.78-41.42-96.73,0-28.3,48.92-83.84,48.92-112.14,0-24-41.42-72.78-41.42-96.73,0A92,92,0,0,1,0,127.87v97.07H3968.5V127.86C3938.74,165.13,3890,161.39,3864.07,116.58Z"/></g></g></svg>